<?xml version="1.0" encoding="UTF-8"?>
<svg width="154px" height="64px" viewBox="0 0 154 64" version="1.1" xmlns="http://www.w3.org/2000/svg" xmlns:xlink="http://www.w3.org/1999/xlink">
    <!-- Generator: Sketch 52.5 (67469) - http://www.bohemiancoding.com/sketch -->
    <title>logo_white copy 18@2x</title>
    <desc>Created with Sketch.</desc>
    <g id="Assets" stroke="none" stroke-width="1" fill="none" fill-rule="evenodd">
        <g id="My-Assets" transform="translate(-23.000000, -16.000000)">
            <g id="Navbar">
                <g id="logo-white" transform="translate(23.000000, 16.000000)">
                    <g id="_Group_" transform="translate(43.228070, 10.816901)" fill="#FFFFFF">
                        <rect id="_Path_" x="66.4017698" y="5.11191202" width="3.2708816" height="11.0497241"></rect>
                        <g id="_Group_2" transform="translate(27.297255, 4.574957)">
                            <path d="M5.95032267,11.8587691 C3.28874427,11.8594426 0.970147841,10.0338907 0.332330113,7.43543049 C-0.305487615,4.83697027 0.902076044,2.13619069 3.25827426,0.891402656 C5.61447248,-0.353385377 8.51123724,0.179062664 10.277177,2.18153193 L8.21791042,4.2402624 C7.66232835,3.55513274 6.82945422,3.15803722 5.95032267,3.15912792 C4.36339029,3.15912792 3.07692742,4.45277708 3.07692742,6.04857418 C3.07692742,7.64437129 4.36339029,8.93802045 5.95032267,8.93802045 C7.13180583,8.93156583 8.1926894,8.2089496 8.63694723,7.10803782 L11.0505992,8.81521899 C9.89405765,10.8354235 8.00480028,11.8587691 5.95032267,11.8587691 Z" id="_Path_2"></path>
                        </g>
                        <path d="M60.7363922,5.12395138 L60.7363922,5.94021995 C59.8501543,5.1945728 58.7287447,4.79079556 57.5732629,4.80129655 C54.6184548,4.80129655 52.065922,7.41142967 52.065922,10.618715 C52.065922,13.8813814 54.7333906,16.4337256 57.5732629,16.4337256 C58.7153717,16.4668183 59.8334544,16.099986 60.7363922,15.3959329 L60.7363922,16.1736755 L64.0072738,16.1736755 L64.0072738,5.12395138 L60.7363922,5.12395138 Z M57.8629969,13.5033456 C56.700817,13.5033456 55.6530728,12.7993546 55.2083258,11.7196425 C54.7635789,10.6399304 55.0094144,9.39712808 55.8311996,8.57075224 C56.6529849,7.7443764 57.8888834,7.49716764 58.9625977,7.94439902 C60.0363119,8.3916304 60.7363922,9.44522736 60.7363922,10.6138993 C60.7363932,11.3810632 60.4330041,12.1167359 59.8931017,12.6587508 C59.3531994,13.2007658 58.6211091,13.5046242 57.8582079,13.5033456 L57.8629969,13.5033456 Z" id="_Compound_Path_" fill-rule="nonzero"></path>
                        <g id="_Group_3" transform="translate(0.000000, 2.648659)" fill-rule="nonzero">
                            <path d="M6.86023117,13.739317 C3.09258921,13.739317 0.0383119367,10.6679783 0.0383119367,6.87928999 C0.0383119367,3.09060168 3.09258921,0.0192629751 6.86023117,0.0192629751 C10.6278731,0.0192629751 13.6821504,3.09060168 13.6821504,6.87928999 C13.678191,10.6663279 10.6262319,13.7353355 6.86023117,13.739317 Z M6.86023117,3.14468069 C4.81044351,3.14468069 3.1487623,4.81564418 3.1487623,6.87688211 C3.1487623,8.93812005 4.81044351,10.6090835 6.86023117,10.6090835 C8.91001882,10.6090835 10.5717,8.93812005 10.5717,6.87688211 C10.5677434,4.81768453 8.90799193,3.14973833 6.86023117,3.14708856 L6.86023117,3.14468069 Z" id="_Compound_Path_2"></path>
                        </g>
                        <g id="_Group_4" transform="translate(66.088091, 0.000000)">
                            <path d="M3.84556065,2.00094154 C3.84556065,3.05416763 2.99649515,3.90797608 1.94911978,3.90797608 C0.90174441,3.90797608 0.052678913,3.05416763 0.052678913,2.00094154 C0.052678913,0.947715448 0.90174441,0.0939070037 1.94911978,0.0939070037 C2.99649515,0.0939070037 3.84556065,0.947715448 3.84556065,2.00094154 Z" id="_Path_3"></path>
                        </g>
                        <path d="M25.8988692,8.93802045 C25.9334619,7.83522417 25.5148316,6.76678638 24.7414788,5.98410214 C23.9681259,5.20141791 22.9083342,4.77359491 21.8114645,4.80129655 C20.5497701,4.83570309 19.3694006,5.43536675 18.5932618,6.43624156 L18.5932618,5.12395138 L15.3247747,5.12395138 L15.3247747,16.1616361 L18.5956563,16.1616361 L18.5956563,9.74465753 C18.5956563,9.26308316 18.9428582,8.46607756 19.680363,7.94838511 C20.2263081,7.56553347 21.0500147,7.3319699 21.7252626,7.68592707 C22.6088316,8.15064634 22.6255931,8.84892919 22.6255931,9.7904071 L22.6255931,16.1616361 L25.8964747,16.1616361 C25.8964747,16.1616361 25.9060527,10.7631873 25.8988692,8.93802045 Z" id="_Path_4"></path>
                        <path d="M82.7082879,8.93802045 C82.7428806,7.83522417 82.3242503,6.76678638 81.5508974,5.98410214 C80.7775445,5.20141791 79.7177529,4.77359491 78.6208831,4.80129655 C77.3592734,4.83603982 76.1790386,5.43563504 75.4026804,6.43624156 L75.4026804,5.12395138 L72.1389823,5.12395138 L72.1389823,16.1616361 L75.4098639,16.1616361 L75.4098639,9.74465753 C75.4098639,9.26308316 75.7546713,8.46607756 76.4945706,7.94838511 C77.0405157,7.56553347 77.8642224,7.3319699 78.5370757,7.68592707 C79.4206448,8.15064634 79.4398008,8.84892919 79.4398008,9.7904071 L79.4398008,16.1616361 L82.7106824,16.1616361 C82.7106824,16.1616361 82.7154713,10.7631873 82.7082879,8.93802045 Z" id="_Path_5"></path>
                        <path d="M50.4687931,8.93802045 C50.4990898,8.27488308 50.3701432,7.61416003 50.0928572,7.01172294 C49.4774718,5.83186571 48.3544531,4.79407293 46.3813884,4.79407293 C45.119694,4.82847947 43.9393246,5.42814313 43.1631857,6.42901794 L43.1631857,0.575481381 L39.8970931,0.575481381 L39.8970931,16.1544125 L43.1703692,16.1544125 L43.1703692,9.74465753 C43.1703692,9.26308316 43.5151766,8.46607756 44.2526814,7.94838511 C44.7986265,7.56553347 45.6247276,7.3319699 46.297581,7.68592707 C47.1811501,8.15064634 47.1979115,8.84892919 47.1979115,9.7904071 L47.1979115,16.1616361 L50.4711876,16.1616361 C50.4711876,16.1616361 50.4759766,10.7631873 50.4687931,8.93802045 Z" id="_Path_6"></path>
                        <path d="M11.0362323,29.3375111 C10.4819439,30.9732532 8.88345816,32.0124324 7.17263734,31.8492429 C5.46181651,31.6860534 4.08614297,30.363179 3.84758715,28.6518101 C3.60903133,26.9404412 4.5699899,25.2882035 6.170257,24.6582949 C7.77052411,24.0283862 9.59153384,24.5855655 10.5717,26.0050164 L12.7961869,23.7825506 C10.8740979,21.4357104 7.64481965,20.6416639 4.86266517,21.8317787 C2.08051069,23.0218935 0.409741038,25.9120205 0.758005775,28.9320914 C1.10627051,31.9521622 3.39041872,34.3811115 6.36958148,34.8994067 C9.34874424,35.417702 12.3116232,33.9015961 13.6486275,31.1747173 L11.0362323,29.3375111 Z" id="Path"></path>
                        <path d="M18.5908673,23.6790122 L18.5908673,29.4362338 C18.5908673,30.7894578 18.5908673,32.4075478 20.6142164,32.4075478 C22.6375656,32.4075478 22.6184096,30.7894578 22.6184096,29.4362338 L22.6184096,23.6790122 L25.9012637,23.6790122 L25.9012637,29.9924522 C25.9012637,33.4477484 23.8467861,34.9839707 20.3388494,34.9839707 C16.8309127,34.9839707 15.3247747,33.4477484 15.3247747,29.9924522 L15.3247747,23.6790122 L18.5908673,23.6790122 Z" id="Path"></path>
                        <path d="M35.0027432,26.4865908 C34.3736557,25.9502169 33.5812076,25.6460792 32.7567059,25.6245726 C32.1532929,25.6077175 31.3487422,25.8653598 31.3200083,26.5708663 C31.2840908,27.4497395 33.1110913,27.5195678 34.2652384,27.9770635 C35.5893947,28.4995717 36.913551,29.2219332 36.913551,31.1072969 C36.913551,33.5320239 34.6052568,34.9767471 31.9042653,34.9767471 C30.1663742,34.9593489 28.5019203,34.2694976 27.2565485,33.0504495 L29.0212921,31.2469535 C29.7396409,31.913934 30.6974393,32.5736909 31.7749625,32.5736909 C32.5866967,32.5736909 33.3696969,32.0921165 33.3888528,31.369755 C33.4175868,30.3777117 32.0503295,30.1248852 30.7549072,29.6577581 C29.4594848,29.1906309 28.0946221,28.6368204 28.0946221,26.8790739 C28.0946221,24.8323828 29.7707693,23.344318 32.1844213,23.344318 C33.8132094,23.2822342 35.4154905,23.7723878 36.7339638,24.7360679 L35.0027432,26.4865908 Z" id="Path"></path>
                        <g id="_Group_5" transform="translate(44.777076, 23.115570)" fill-rule="nonzero">
                            <path d="M5.83059787,11.8684005 C2.63720849,11.8670708 0.0494031854,9.2630134 0.0502846372,6.05178535 C0.051166089,2.84055729 2.64040058,0.237936821 5.8337902,0.238379871 C9.02717982,0.238822921 11.6157,2.84216175 11.6157003,6.05338993 C11.613058,9.26477051 9.02413989,11.867073 5.83059787,11.8684005 Z M5.83059787,3.16875941 C4.24366549,3.16875941 2.95720261,4.46240856 2.95720261,6.05820567 C2.95720261,7.65400278 4.24366549,8.94765194 5.83059787,8.94765194 C7.41753025,8.94765194 8.70399312,7.65400278 8.70399312,6.05820567 C8.70399312,4.46240856 7.41753025,3.16875941 5.83059787,3.16875941 Z" id="_Compound_Path_3"></path>
                        </g>
                        <path d="M66.4017698,19.13295 L66.4017698,24.4784256 C65.5163723,23.7329461 64.3957667,23.3291527 63.241035,23.3395022 C60.2862269,23.3395022 57.7336941,25.9496353 57.7336941,29.1569207 C57.7336941,32.4195871 60.4035572,34.9743392 63.241035,34.9743392 C64.3827649,35.0071904 65.5002684,34.639419 66.4017698,33.9341385 L66.4017698,34.7118811 L69.6798349,34.7118811 L69.6798349,19.13295 L66.4017698,19.13295 Z M63.5283745,32.0415512 C61.9414422,32.0415512 60.6549793,30.7479021 60.6549793,29.152105 C60.6549793,27.5563078 61.9414422,26.2626587 63.5283745,26.2626587 C65.1153069,26.2626587 66.4017698,27.5563078 66.4017698,29.152105 C66.4017701,29.9188511 66.0987095,30.6541582 65.5593254,31.1961038 C65.0199413,31.7380493 64.2884666,32.0421902 63.52598,32.0415512 L63.5283745,32.0415512 Z" id="_Compound_Path_4" fill-rule="nonzero"></path>
                        <rect id="_Path_7" x="72.1389823" y="23.6741964" width="3.2708816" height="11.0376847"></rect>
                        <g id="_Group_6" transform="translate(71.834881, 18.540614)">
                            <path d="M3.83119367,1.99853367 C3.83119367,3.05175976 2.98212817,3.9055682 1.9347528,3.9055682 C0.887377434,3.9055682 0.0383119367,3.05175976 0.0383119367,1.99853367 C0.0383119367,0.945307576 0.887377434,0.0914991318 1.9347528,0.0914991318 C2.98158123,0.0928257573 3.82987441,0.945857572 3.83119367,1.99853367 Z" id="_Path_8"></path>
                        </g>
                        <path d="M85.6032336,23.6741964 L85.6032336,24.490465 C84.7172694,23.7465348 83.596662,23.3444481 82.4424988,23.3563573 C79.4876907,23.3563573 76.9351579,25.9640826 76.9351579,29.1713679 C76.9351579,32.4340343 79.605021,34.9887864 82.4424988,34.9887864 C83.5839373,35.0223232 84.7014104,34.6554131 85.6032336,33.9509936 L85.6032336,34.7263284 L88.8741152,34.7263284 L88.8741152,23.6741964 L85.6032336,23.6741964 Z M82.7298383,32.0535906 C81.1429059,32.0535906 79.8564431,30.7599414 79.8564431,29.1641443 C79.8564431,27.5683472 81.1429059,26.2746981 82.7298383,26.2746981 C84.3167707,26.2746981 85.6032336,27.5683472 85.6032336,29.1641443 C85.6032338,29.9308905 85.3001733,30.6661976 84.7607892,31.2081431 C84.221405,31.7500887 83.4899304,32.0542295 82.7274438,32.0535906 L82.7298383,32.0535906 Z" id="_Compound_Path_5" fill-rule="nonzero"></path>
                        <path d="M101.612834,27.4882655 C101.646083,26.3862915 101.226858,25.3191287 100.453657,24.5375098 C99.6804571,23.755891 98.6214415,23.3287184 97.5254294,23.3563573 C96.2638197,23.3911006 95.0835849,23.9906958 94.3072267,24.9913023 L94.3072267,23.6790122 L91.0435286,23.6790122 L91.0435286,34.714289 L94.3144102,34.714289 L94.3144102,28.2949026 C94.3144102,27.8133282 94.6592176,27.0163226 95.3991169,26.4986301 C95.945062,26.1157785 96.7687686,25.8822149 97.441622,26.2361721 C98.3251911,26.7008914 98.344347,27.3991742 98.344347,28.3406521 L98.344347,34.7094733 L101.615229,34.7094733 C101.615229,34.7094733 101.620018,29.3134324 101.612834,27.4882655 Z" id="_Path_9"></path>
                        <polygon id="Path" points="44.1521126 23.6790122 42.3083506 23.6790122 42.3083506 20.6210149 42.2293322 20.6210149 39.1021204 20.6210149 39.037469 20.6210149 39.037469 23.6790122 38.0293862 23.6790122 38.0293862 26.3300791 39.037469 26.3300791 39.037469 34.7094733 39.1021204 34.7094733 42.2293322 34.7094733 42.3083506 34.7094733 42.3083506 26.3300791 44.1521126 26.3300791"></polygon>
                    </g>
                    <g id="_Group_7" transform="translate(13.508772, 51.380282)" fill="#FFFFFF">
                        <rect id="_Path_10" x="0.132717759" y="0" width="22.329763" height="6.07765634"></rect>
                    </g>
                    <path d="M36.0180829,18.5307769 C36.0180829,17.3276085 35.8436847,15.8823964 35.148481,14.5828806 C33.647427,11.6915611 30.6128407,9.88421117 27.3125077,9.91590305 C24.6269847,9.98821049 22.1144771,11.2359794 20.4608092,13.3186137 L20.4751433,10.5879854 L13.5087719,10.5879854 L13.5087719,27.0375536 L20.4751433,27.0375536 L20.4751433,20.2133328 C20.4751433,19.2075592 21.2133493,17.5508526 22.782933,16.469881 C23.9463839,15.670902 25.6999218,15.1844648 27.1357205,15.9246953 C29.0158763,16.8928699 29.0469335,18.3451318 29.0469335,20.3049804 L29.0469335,27.0422535 L36.0180829,27.0422535 C36.0180829,27.0422535 36.030028,22.3306272 36.0180829,18.5307769 Z" id="_Path_11" fill="#FFFFFF"></path>
                    <path d="M20.4657512,29.7464789 L20.4657512,35.2409499 C20.4657512,38.0792475 20.4657512,41.4710131 24.7660819,41.4710131 C29.0353546,41.4710131 29.0353546,38.0768822 29.0353546,35.2409499 L29.0353546,29.7464789 L36.0233918,29.7464789 L36.0233918,36.4070172 C36.0233918,43.6494065 31.651389,46.8732394 24.1807591,46.8732394 C16.7101292,46.8732394 13.5087719,43.6494065 13.5087719,36.4070172 L13.5087719,29.7464789 L20.4657512,29.7464789 Z" id="Path" fill="#FFFFFF"></path>
                    <rect id="Rectangle" x="0" y="0" width="154" height="64"></rect>
                </g>
            </g>
        </g>
    </g>
</svg>
