<?xml version="1.0" encoding="UTF-8"?>
<svg width="154px" height="64px" viewBox="0 0 154 64" version="1.1" xmlns="http://www.w3.org/2000/svg" xmlns:xlink="http://www.w3.org/1999/xlink">
    <!-- Generator: Sketch 52.6 (67491) - http://www.bohemiancoding.com/sketch -->
    <title>logo_white copy 10@2x</title>
    <desc>Created with Sketch.</desc>
    <defs>
        <polygon id="path-1" points="0 47.9552811 131.603782 47.9552811 131.603782 0 0 0"></polygon>
    </defs>
    <g id="Sign-in-and-Sign-up" stroke="none" stroke-width="1" fill="none" fill-rule="evenodd">
        <g id="Log-in-1" transform="translate(-23.000000, -16.000000)">
            <g id="Group-3">
                <g id="logo" transform="translate(23.000000, 16.000000)">
                    <rect id="Rectangle" x="0" y="0" width="154" height="64"></rect>
                    <g transform="translate(13.307771, 9.250602)">
                        <polygon id="Fill-1" fill="#0078FA" points="96.4410849 6.44667043 99.7171409 6.44667043 99.7171409 17.4086937 96.4410849 17.4086937"></polygon>
                        <path d="M63.1365139,17.6808615 C59.9427883,17.6808615 57.3442748,15.0920649 57.3442748,11.9100656 C57.3442748,8.72806633 59.9427883,6.13926978 63.1365139,6.13926978 C65.1191784,6.13926978 66.5672382,7.08545089 67.46918,8.0785948 L65.4070091,10.1215842 C64.837213,9.4357544 64.0210773,9.04836552 63.1365139,9.04836552 C61.552685,9.04836552 60.2640725,10.3319429 60.2640725,11.9100656 C60.2640725,13.487972 61.552685,14.7717658 63.1365139,14.7717658 C64.2821886,14.7717658 65.3505291,14.0859359 65.8253954,12.9566649 L68.2438246,14.6507879 C67.0866367,16.6639116 65.1928196,17.6808615 63.1365139,17.6808615" id="Fill-3" fill="#0078FA"></path>
                        <path d="M87.7826607,14.7717874 C86.1988317,14.7717874 84.9102193,13.4879936 84.9102193,11.9100873 C84.9102193,10.3319645 86.1988317,9.04838716 87.7826607,9.04838716 C89.3667068,9.04838716 90.6553193,10.3319645 90.6553193,11.9100873 C90.6553193,13.4879936 89.3667068,14.7717874 87.7826607,14.7717874 Z M90.6640085,6.45872493 L90.6640085,7.26856248 C89.8209362,6.56866547 88.7484683,6.13929142 87.497654,6.13929142 C84.5378859,6.13929142 81.9904216,8.72808797 81.9904216,11.9100873 C81.9904216,15.1472733 84.6627935,17.6808831 87.497654,17.6808831 C88.8331883,17.6808831 89.8739405,17.2792106 90.6640085,16.6509481 L90.6640085,17.4207483 L93.9400645,17.4207483 L93.9400645,6.45872493 L90.6640085,6.45872493 Z" id="Fill-5" fill="#0078FA"></path>
                        <path d="M36.7115954,7.12529351 C34.6622411,7.12529351 32.9949955,8.78630451 32.9949955,10.8279954 C32.9949955,12.8696863 34.6622411,14.5306973 36.7115954,14.5306973 C38.7611669,14.5306973 40.4281952,12.8696863 40.4281952,10.8279954 C40.4281952,8.78630451 38.7611669,7.12529351 36.7115954,7.12529351 M36.7115954,17.6334875 C32.9450325,17.6334875 29.8807764,14.58069 29.8807764,10.8279954 C29.8807764,7.07551729 32.9450325,4.02271975 36.7115954,4.02271975 C40.4783755,4.02271975 43.5426316,7.07551729 43.5426316,10.8279954 C43.5426316,14.58069 40.4783755,17.6334875 36.7115954,17.6334875" id="Fill-7" fill="#0078FA"></path>
                        <path d="M99.9783391,3.36037133 C99.9783391,4.40545564 99.1280982,5.25251714 98.0793084,5.25251714 C97.0303014,5.25251714 96.1800605,4.40545564 96.1800605,3.36037133 C96.1800605,2.31550343 97.0303014,1.46844193 98.0793084,1.46844193 C99.1280982,1.46844193 99.9783391,2.31550343 99.9783391,3.36037133" id="Fill-9" fill="#0078FA"></path>
                        <path d="M55.7767599,10.2427569 C55.7748048,9.67011385 55.6946467,8.98168702 55.368149,8.36251406 C54.7507793,7.19190709 53.4990961,6.13946455 51.6826131,6.13946455 C50.620355,6.13946455 49.2691801,6.68830154 48.4593441,7.75978889 L48.4660783,6.45868165 L45.1900223,6.45868165 L45.1900223,17.4085855 L48.4660783,17.4085855 L48.4660783,11.0439377 C48.4660783,10.5650038 48.8129957,9.77572602 49.5520145,9.26129955 C50.0987841,8.88061964 50.9240435,8.64883556 51.599631,9.00116467 C52.4837599,9.46235222 52.5015728,10.1540253 52.5015728,11.0883034 L52.5015728,17.4085855 L55.7776288,17.4085855 C55.7776288,17.4085855 55.7826251,12.053313 55.7767599,10.2427569" id="Fill-11" fill="#0078FA"></path>
                        <path d="M112.822734,10.2427569 C112.820778,9.67011385 112.740403,8.98168702 112.414123,8.36251406 C111.796753,7.19190709 110.54507,6.13946455 108.72837,6.13946455 C107.666111,6.13946455 106.314937,6.68830154 105.505318,7.75978889 L105.512052,6.45868165 L102.235996,6.45868165 L102.235996,17.4085855 L105.512052,17.4085855 L105.512052,11.0439377 C105.512052,10.5650038 105.858969,9.77572602 106.597988,9.26129955 C107.144758,8.88061964 107.9698,8.64883556 108.645387,9.00116467 C109.529734,9.46235222 109.547329,10.1540253 109.547329,11.0883034 L109.547329,17.4085855 L112.823385,17.4085855 C112.823385,17.4085855 112.828599,12.053313 112.822734,10.2427569" id="Fill-13" fill="#0078FA"></path>
                        <path d="M80.3826103,10.2427569 C80.3806553,9.67011385 80.3330818,8.957881 80.0068013,8.33892445 C79.3896489,7.16810107 78.2648284,6.13946455 76.2884636,6.13946455 C75.2262055,6.13946455 73.8750306,6.68830154 73.0654118,7.75978889 L73.0719287,1.95328401 L69.79609,1.95328401 L69.79609,17.4085855 L73.0719287,17.4085855 L73.0719287,11.0439377 C73.0719287,10.5650038 73.4190634,9.77572602 74.1580822,9.26129955 C74.7048518,8.88061964 75.529894,8.64883556 76.2054814,9.00116467 C77.0898276,9.46235222 77.1074233,10.1540253 77.1074233,11.0883034 L77.1074233,17.4085855 L80.3834793,17.4085855 C80.3834793,17.4085855 80.3886928,12.053313 80.3826103,10.2427569" id="Fill-15" fill="#0078FA"></path>
                        <path d="M40.8924389,30.4238781 C40.3899844,31.8764783 39.007311,32.9245924 37.3806876,32.9245924 C35.3313333,32.9245924 33.6640878,31.2635814 33.6640878,29.2218905 C33.6640878,27.1801996 35.3313333,25.5191886 37.3806876,25.5191886 C38.6408429,25.5191886 39.7545846,26.1485332 40.4269136,27.1066174 L42.6539626,24.9006649 C41.4001071,23.3846542 39.5019453,22.4163984 37.3806876,22.4163984 C33.6141247,22.4163984 30.5498686,25.4694124 30.5498686,29.2218905 C30.5498686,32.9745851 33.6141247,36.0273826 37.3806876,36.0273826 C40.0565353,36.0273826 42.3767762,34.4858346 43.4968177,32.2480686 L40.8924389,30.4238781 Z" id="Fill-17" fill="#6987A7"></path>
                        <path d="M48.4575411,24.8106132 L48.4575411,30.5221104 C48.4575411,31.86477 48.4575411,33.4712436 50.4847379,33.4712436 C52.4921667,33.4712436 52.4921667,31.86477 52.4921667,30.5221104 L52.4921667,24.8106132 L55.779736,24.8106132 L55.779736,31.0735445 C55.779736,34.5022607 53.7225613,36.027361 50.2088549,36.027361 C46.6949313,36.027361 45.1899571,34.5022607 45.1899571,31.0735445 L45.1899571,24.8106132 L48.4575411,24.8106132 Z" id="Fill-19" fill="#6987A7"></path>
                        <path d="M64.892824,27.5969997 C64.3675602,27.1777974 63.6628639,26.7711472 62.6447036,26.7430129 C62.0410195,26.7265651 61.2348765,26.9886477 61.2070709,27.6816193 C61.1720968,28.5544346 63.0018309,28.6241213 64.1577154,29.0764357 C65.4843432,29.5956234 66.8101021,30.3121846 66.8101021,32.1878826 C66.8101021,34.5931564 64.499202,36.027361 61.7942455,36.027361 C60.061179,36.027361 58.2690259,35.2644862 57.1398607,34.1168196 L58.9070324,32.3272561 C59.6160734,32.9892799 60.5864428,33.6443783 61.6630381,33.6443783 C62.4772188,33.6443783 63.2599009,33.1550563 63.2798862,32.449316 C63.3076917,31.4652617 61.9393556,31.2142164 60.652481,30.7508647 C59.3660408,30.2875129 57.986626,29.7384595 57.986626,27.995426 C57.986626,25.9652052 59.6671226,24.4866349 62.0831623,24.4866349 C63.5551174,24.4866349 64.9484351,24.7006727 66.6369692,25.8693319 L64.892824,27.5969997 Z" id="Fill-21" fill="#6987A7"></path>
                        <path d="M80.5217683,27.395709 C78.9381566,27.395709 77.6495442,28.6792864 77.6495442,30.2569763 C77.6495442,31.8346662 78.9381566,33.1182436 80.5217683,33.1182436 C82.10538,33.1182436 83.3937753,31.8346662 83.3937753,30.2569763 C83.3937753,28.6792864 82.10538,27.395709 80.5217683,27.395709 M80.5217683,36.0273393 C77.3280427,36.0273393 74.7297465,33.4387592 74.7297465,30.2569763 C74.7297465,27.0751934 77.3280427,24.4868297 80.5217683,24.4868297 C83.7154939,24.4868297 86.3137902,27.0751934 86.3137902,30.2569763 C86.3137902,33.4387592 83.7154939,36.0273393 80.5217683,36.0273393" id="Fill-23" fill="#6987A7"></path>
                        <path d="M93.4573779,33.1067951 C91.873549,33.1067951 90.5849365,31.8230013 90.5849365,30.2450949 C90.5849365,28.6669722 91.873549,27.3831784 93.4573779,27.3831784 C95.0414241,27.3831784 96.3300366,28.6669722 96.3300366,30.2450949 C96.3300366,31.8230013 95.0414241,33.1067951 93.4573779,33.1067951 Z M96.3385086,20.2995887 L96.3385086,25.6035701 C95.4956535,24.9036731 94.4231856,24.4742991 93.1723713,24.4742991 C90.2126031,24.4742991 87.6649216,27.0630956 87.6649216,30.2450949 C87.6649216,33.4822809 90.3372936,36.0158908 93.1723713,36.0158908 C94.5079055,36.0158908 95.5486578,35.6142183 96.3385086,34.9859558 L96.3385086,35.7557559 L99.6145646,35.7557559 L99.6145646,20.2995887 L96.3385086,20.2995887 Z" id="Fill-25" fill="#6987A7"></path>
                        <mask id="mask-2" fill="white">
                            <use xlink:href="#path-1"></use>
                        </mask>
                        <g id="Clip-28"></g>
                        <polygon id="Fill-27" fill="#6987A7" mask="url(#mask-2)" points="102.082349 35.7551283 105.358405 35.7551283 105.358405 24.8052244 102.082349 24.8052244"></polygon>
                        <path d="M105.619538,21.6947514 C105.619538,22.7396193 104.769297,23.5866808 103.720507,23.5866808 C102.6715,23.5866808 101.821259,22.7396193 101.821259,21.6947514 C101.821259,20.6496671 102.6715,19.8026056 103.720507,19.8026056 C104.769297,19.8026056 105.619538,20.6496671 105.619538,21.6947514" id="Fill-29" fill="#6987A7" mask="url(#mask-2)"></path>
                        <path d="M112.686552,33.1192607 C111.102505,33.1192607 109.813893,31.835467 109.813893,30.2575606 C109.813893,28.6794379 111.102505,27.3956441 112.686552,27.3956441 C114.270381,27.3956441 115.558993,28.6794379 115.558993,30.2575606 C115.558993,31.835467 114.270381,33.1192607 112.686552,33.1192607 Z M115.567682,24.8059819 L115.567682,25.6160358 C114.72461,24.9161388 113.652359,24.4867648 112.401545,24.4867648 C109.44156,24.4867648 106.894095,27.0755613 106.894095,30.2575606 C106.894095,33.4947466 109.566467,36.0283565 112.401545,36.0283565 C113.736862,36.0283565 114.777831,35.626684 115.567682,34.9984215 L115.567682,35.7682216 L118.843738,35.7682216 L118.843738,24.8059819 L115.567682,24.8059819 Z" id="Fill-30" fill="#6987A7" mask="url(#mask-2)"></path>
                        <path d="M131.600893,28.589278 C131.598938,28.0164186 131.51878,27.3282081 131.192282,26.7090352 C130.57513,25.5382118 129.323446,24.4859857 127.506746,24.4859857 C126.444488,24.4859857 125.093313,25.0346062 124.283694,26.10631 L124.290211,24.8052028 L121.014155,24.8052028 L121.014155,35.7551067 L124.290211,35.7551067 L124.290211,29.3904588 C124.290211,28.9115249 124.637129,28.1220307 125.376147,27.6078207 C125.922917,27.2271408 126.748176,26.9953567 127.423764,27.3474694 C128.30811,27.8088733 128.325706,28.5005464 128.325706,29.4348246 L128.325706,35.7551067 L131.601762,35.7551067 C131.601762,35.7551067 131.606975,30.3998341 131.600893,28.589278" id="Fill-31" fill="#6987A7" mask="url(#mask-2)"></path>
                        <polygon id="Fill-32" fill="#6987A7" mask="url(#mask-2)" points="74.0557665 24.8106132 72.2095229 24.8106132 72.2095229 21.7770769 72.1317543 21.7770769 68.9992878 21.7770769 68.9336841 21.7770769 68.9336841 24.8106132 67.9252993 24.8106132 67.9252993 27.4409621 68.9336841 27.4409621 68.9336841 35.7551067 68.9992878 35.7551067 72.1317543 35.7551067 72.2095229 35.7551067 72.2095229 27.4409621 74.0557665 27.4409621"></polygon>
                        <polygon id="Fill-33" fill="#6987A7" mask="url(#mask-2)" points="0 47.9552811 22.5937295 47.9552811 22.5937295 42.202448 0 42.202448"></polygon>
                        <path d="M22.5979655,8.75656863 C22.5940553,7.53445409 22.4226603,6.06540619 21.7260015,4.74417203 C20.4089318,2.24605478 17.737646,6.49255112e-05 13.8611644,6.49255112e-05 C11.5943622,6.49255112e-05 8.710842,1.17132115 6.98320634,3.45821407 L6.99732633,0.681349957 L0.00619107463,0.681349957 L0.00619107463,17.4098408 L6.99732633,17.4098408 L6.99732633,10.4662738 C6.99732633,9.44434621 7.73786575,7.75996203 9.31474332,6.66207163 C10.4817066,5.84963707 12.2423613,5.35512109 13.6841214,6.10695851 C15.5709872,7.09101285 15.6085681,8.56720255 15.6085681,10.5608486 L15.6085681,17.4098408 L22.5997033,17.4098408 C22.5997033,17.4098408 22.6109993,12.6205022 22.5979655,8.75656863" id="Fill-34" fill="#0078FA" mask="url(#mask-2)"></path>
                        <path d="M6.97899206,20.2999783 L6.97899206,25.8493781 C6.97899206,28.7145409 6.97899206,32.1426079 11.3051412,32.1426079 C15.5889304,32.1426079 15.5889304,28.7145409 15.5889304,25.8493781 L15.5889304,20.2999783 L22.6043955,20.2999783 L22.6043955,27.0264776 C22.6043955,34.3429335 18.2145977,37.5976494 10.7160116,37.5976494 C3.21764269,37.5976494 0.00610418235,34.3429335 0.00610418235,27.0264776 L0.00610418235,20.2999783 L6.97899206,20.2999783 Z" id="Fill-35" fill="#6987A7" mask="url(#mask-2)"></path>
                    </g>
                </g>
            </g>
        </g>
    </g>
</svg>
