<?xml version="1.0" encoding="UTF-8"?>
<svg width="60px" height="60px" viewBox="0 0 60 60" version="1.1" xmlns="http://www.w3.org/2000/svg" xmlns:xlink="http://www.w3.org/1999/xlink">
    <!-- Generator: Sketch 52.2 (67145) - http://www.bohemiancoding.com/sketch -->
    <title>Rectangle</title>
    <desc>Created with Sketch.</desc>
    <g id="workflow" stroke="none" stroke-width="1" fill="none" fill-rule="evenodd">
        <g id="workflow-withdraw-operation-approve2" transform="translate(-690.000000, -268.000000)" fill="#0078FA">
            <g id="Group-3" transform="translate(690.000000, 268.000000)">
                <g id="tongxunlianjie" transform="translate(3.000000, 3.000000)">
                    <path d="M7.55048924,9.59530333 L0.00528375734,9.59530333 L0.00528375734,21.4890411 L2.87964775,24.3634051 L2.87964775,28.3050881 L11.2279843,28.3050881 L11.2279843,24.3634051 L14.1023483,21.4890411 L14.1023483,9.59530333 L7.55048924,9.59530333 Z M1.09902153,0.00528375734 L1.09902153,8.65479452 L13.0086106,8.65479452 L13.0086106,0.00528375734 L1.09902153,0.00528375734 Z M5.64833659,5.33659491 L3.64579256,5.33659491 L3.64579256,3.32876712 L5.64833659,3.32876712 L5.64833659,5.33659491 Z M10.4618395,5.33659491 L8.4592955,5.33659491 L8.4592955,3.32876712 L10.4618395,3.32876712 L10.4618395,5.33659491 Z M45.8048924,49.2076321 L45.8048924,53.9947162 L52.3937378,53.9947162 L52.3937378,49.2076321 L45.8048924,49.2076321 Z M50.1058708,52.5522505 L48.1033268,52.5522505 L48.1033268,51.5483366 L50.1058708,51.5483366 L50.1058708,52.5522505 Z M44.2091977,36.4949119 L44.2091977,48.3041096 L53.9947162,48.3041096 L53.9947162,36.4949119 C53.9947162,35.253229 52.9855186,34.2440313 51.7438356,34.2440313 L46.4600783,34.2440313 C45.2131115,34.2493151 44.2091977,35.253229 44.2091977,36.4949119 Z" id="Shape" fill-rule="nonzero"></path>
                    <path d="M17.0295499,49.0913894 C10.6626223,49.0913894 5.47925636,43.9133072 5.47925636,37.5463796 L5.47925636,29.1874755 L8.62837573,29.1874755 L8.62837573,37.5463796 C8.62837573,42.1749511 12.3956947,45.9422701 17.0242661,45.9422701 C21.6528376,45.9422701 25.4201566,42.1749511 25.4201566,37.5463796 L25.4201566,19.5657534 C25.4201566,13.1988258 30.5982387,8.02074364 36.9704501,8.02074364 L39.1262231,8.02074364 C45.4931507,8.02074364 50.6712329,13.1988258 50.6712329,19.5657534 L50.6712329,33.2348337 L47.5221135,33.2348337 L47.5221135,19.5657534 C47.5221135,14.937182 43.7547945,11.169863 39.1262231,11.169863 L36.9704501,11.169863 C32.3418787,11.169863 28.5745597,14.937182 28.5745597,19.5657534 L28.5745597,37.5463796 C28.5745597,43.9133072 23.3964775,49.0913894 17.0295499,49.0913894 Z" id="Path"></path>
                </g>
            </g>
        </g>
    </g>
</svg>