<?xml version="1.0" encoding="UTF-8"?>
<svg width="60px" height="60px" viewBox="0 0 60 60" version="1.1" xmlns="http://www.w3.org/2000/svg" xmlns:xlink="http://www.w3.org/1999/xlink">
    <!-- Generator: Sketch 52.2 (67145) - http://www.bohemiancoding.com/sketch -->
    <title>Rectangle</title>
    <desc>Created with Sketch.</desc>
    <g id="workflow" stroke="none" stroke-width="1" fill="none" fill-rule="evenodd">
        <g id="workflow-withdraw-operation-approve3成功" transform="translate(-690.000000, -272.000000)" fill="#0078FA">
            <g id="Group-14-Copy" transform="translate(520.000000, 180.000000)">
                <g id="Group-4" transform="translate(170.000000, 92.000000)">
                    <g id="chenggong-2" transform="translate(3.000000, 3.000000)">
                        <path d="M27.0025343,53.9823593 C26.979788,53.9823593 26.9545693,53.9823593 26.9318231,53.9823593 C12.0563986,53.9444695 -0.0177148389,41.80972 0.0176407248,26.9317613 C0.0353185369,19.7251583 2.85937574,12.9556169 7.96936856,7.87084272 C13.0616836,2.80628058 19.8161432,0.0176407248 26.9974657,0.0176407248 C27.020212,0.0176407248 27.0454307,0.0176407248 27.0681769,0.0176407248 C34.2747799,0.0353185369 41.0443213,2.85684155 46.1290954,7.96683437 C51.2113354,13.076889 53.9999752,19.8591015 53.9822975,27.0681769 C53.9646197,34.2747799 51.1430967,41.0443213 46.0331038,46.1265612 C40.9407888,51.1937194 34.1838568,53.9823593 27.0025343,53.9823593 Z M26.9974657,3.89748213 C20.849243,3.89748213 15.0647746,6.28453957 10.7049751,10.6215928 C6.33003203,14.9738514 3.91262569,20.7709291 3.89748213,26.9418364 C3.86719502,39.6802885 14.2059185,50.0695729 26.9418982,50.1023942 C26.9621102,50.1023942 26.9823222,50.1023942 27.0025343,50.1023942 C33.150757,50.1023942 38.9352254,47.7153368 43.2950249,43.3757493 C47.669968,39.0234907 50.0873743,33.2289472 50.1025179,27.05804 C50.1176614,20.8871328 47.7306658,15.077384 43.3784072,10.7049133 C39.0261486,6.32997024 33.2290709,3.9125639 27.0581636,3.89742034 C27.0378898,3.89748213 27.0176778,3.89748213 26.9974657,3.89748213 Z" id="Shape" fill-rule="nonzero"></path>
                        <path d="M23.8121883,37.7707167 C23.349908,37.7707167 22.8851553,37.6065481 22.5138599,37.2730808 C21.7181741,36.5557088 21.6525314,35.3306258 22.3699034,34.5324058 L38.2758934,16.8481294 C38.9957996,16.0549779 40.2208826,15.9892733 41.0165684,16.7041729 C41.8122542,17.4215449 41.8778969,18.6466279 41.1605249,19.4448479 L25.2545349,37.1291243 C24.8705685,37.553453 24.3426455,37.7707167 23.8121883,37.7707167 Z" id="Path"></path>
                        <path d="M23.6556225,37.7934629 C23.1403088,37.7934629 22.625057,37.5888703 22.2436247,37.1846919 L12.8697622,27.2324072 C12.1347124,26.451865 12.1726022,25.2242478 12.9506103,24.4891981 C13.7336868,23.7541483 14.961304,23.7920381 15.6938195,24.5700461 L25.067682,34.5223307 C25.8027318,35.302873 25.764842,36.5304901 24.9868339,37.26554 C24.6104083,37.6191574 24.1329845,37.7934629 23.6556225,37.7934629 Z" id="Path"></path>
                    </g>
                </g>
            </g>
        </g>
    </g>
</svg>