<?xml version="1.0" encoding="UTF-8"?>
<svg width="60px" height="60px" viewBox="0 0 60 60" version="1.1" xmlns="http://www.w3.org/2000/svg" xmlns:xlink="http://www.w3.org/1999/xlink">
    <!-- Generator: Sketch 52.2 (67145) - http://www.bohemiancoding.com/sketch -->
    <title>Rectangle</title>
    <desc>Created with Sketch.</desc>
    <g id="workflow" stroke="none" stroke-width="1" fill="none" fill-rule="evenodd">
        <g id="workflow-withdraw-operation-approve3失败" transform="translate(-690.000000, -272.000000)" fill="#FF7B61">
            <g id="Group-14-Copy" transform="translate(520.000000, 180.000000)">
                <g id="Group-4" transform="translate(170.000000, 92.000000)">
                    <g id="Group-5">
                        <g id="shibai" transform="translate(3.000000, 3.000000)">
                            <path d="M27.0012362,53.9811849 C12.1214232,53.9811849 0.0175170805,41.8772788 0.0175170805,27 C0.0175170805,12.1227212 12.1214232,0.0188151342 27.0012362,0.0188151342 C41.878515,0.0188151342 53.9824211,12.1227212 53.9824211,27 C53.9824211,41.8772788 41.878515,53.9811849 27.0012362,53.9811849 Z M27.0012362,3.8985329 C14.2608062,3.8985329 3.89723491,14.2621042 3.89723491,27 C3.89723491,39.7378958 14.2608062,50.1014671 27.0012362,50.1014671 C39.739132,50.1014671 50.1027033,39.7378958 50.1027033,27 C50.1027033,14.2621042 39.739132,3.8985329 27.0012362,3.8985329 Z" id="Shape" fill-rule="nonzero"></path>
                            <path d="M16.0567086,39.8818523 C15.5591345,39.8818523 15.0640329,39.6924034 14.6851967,39.3135053 C13.9274625,38.5557711 13.9274625,37.3281539 14.6851967,36.5704197 L36.5717178,14.6838987 C37.329452,13.9261644 38.5570691,13.9261644 39.3148033,14.6838987 C40.0725375,15.4416329 40.0725375,16.66925 39.3148033,17.4269843 L17.4282822,39.3135053 C17.0493842,39.6924033 16.5543444,39.8818523 16.0567086,39.8818523 Z" id="Path"></path>
                            <path d="M37.9432296,39.8818523 C37.4456556,39.8818523 36.9505539,39.6924034 36.5717178,39.3135053 L14.6851967,17.4269843 C13.9274625,16.66925 13.9274625,15.4416329 14.6851967,14.6838987 C15.4429309,13.9261644 16.6705481,13.9261644 17.4282822,14.6838987 L39.3148033,36.5704816 C40.0725375,37.3282158 40.0725375,38.5558329 39.3148033,39.3135671 C38.9359053,39.6924033 38.4408655,39.8818523 37.9432296,39.8818523 Z" id="Path"></path>
                        </g>
                    </g>
                </g>
            </g>
        </g>
    </g>
</svg>